<svg width="41" height="40" viewBox="0 0 41 40" fill="none" xmlns="http://www.w3.org/2000/svg">
<path d="M0 20C0 8.9543 9.00986 0 20.0556 0C31.1012 0 40.1111 8.9543 40.1111 20C40.1111 31.0457 31.1012 40 20.0556 40C9.00986 40 0 31.0457 0 20Z" fill="#3F4245"/>
<path d="M20.0556 35C18.0803 35 16.1243 34.612 14.2994 33.8582C12.4744 33.1044 10.8162 31.9995 9.41949 30.6066C8.02274 29.2137 6.91478 27.5601 6.15886 25.7403C5.40295 23.9204 5.01389 21.9698 5.01389 20C5.01389 18.0302 5.40295 16.0796 6.15886 14.2597C6.91478 12.4399 8.02274 10.7863 9.41949 9.3934C10.8162 8.00052 12.4744 6.89563 14.2994 6.14181C16.1243 5.38799 18.0803 5 20.0556 5C24.0449 5 27.8708 6.40476 30.6916 8.90524C33.5125 11.4057 35.0972 14.7971 35.0972 18.3333C35.0972 20.1014 34.3048 21.7971 32.8944 23.0474C31.484 24.2976 29.571 25 27.5764 25H23.3981C22.6525 24.988 21.9243 25.225 21.3293 25.6733C20.7343 26.1216 20.3067 26.7555 20.1146 27.474C19.9224 28.1926 19.9767 28.9546 20.2689 29.6388C20.383 29.906 20.5308 30.1553 20.7074 30.3814C21.2588 31.0873 22.1996 31.527 22.3812 32.4041V32.4041C22.4731 32.8475 22.4233 33.3085 22.2389 33.7223C22.0545 34.1361 21.7447 34.4818 21.3531 34.711C20.9615 34.9402 20.5077 35.0412 20.0556 35Z" fill="#3F4245" stroke="url(#paint0_linear_22_18)" stroke-width="3" stroke-linecap="round" stroke-linejoin="round"/>
<path d="M12.5347 18.3334C12.9962 18.3334 13.3704 17.9603 13.3704 17.5001C13.3704 17.0398 12.9962 16.6667 12.5347 16.6667C12.0732 16.6667 11.6991 17.0398 11.6991 17.5001C11.6991 17.9603 12.0732 18.3334 12.5347 18.3334Z" fill="#3F4245" stroke="url(#paint1_linear_22_18)" stroke-width="3" stroke-linecap="round" stroke-linejoin="round"/>
<path d="M20.0555 13.3334C20.5171 13.3334 20.8912 12.9603 20.8912 12.5001C20.8912 12.0398 20.5171 11.6667 20.0555 11.6667C19.594 11.6667 19.2199 12.0398 19.2199 12.5001C19.2199 12.9603 19.594 13.3334 20.0555 13.3334Z" fill="#3F4245" stroke="url(#paint2_linear_22_18)" stroke-width="3" stroke-linecap="round" stroke-linejoin="round"/>
<path d="M27.5764 18.3334C28.0379 18.3334 28.412 17.9603 28.412 17.5001C28.412 17.0398 28.0379 16.6667 27.5764 16.6667C27.1149 16.6667 26.7407 17.0398 26.7407 17.5001C26.7407 17.9603 27.1149 18.3334 27.5764 18.3334Z" fill="#3F4245" stroke="url(#paint3_linear_22_18)" stroke-width="3" stroke-linecap="round" stroke-linejoin="round"/>
<defs>
<linearGradient id="paint0_linear_22_18" x1="20.0556" y1="5" x2="20.0556" y2="35.009" gradientUnits="userSpaceOnUse">
<stop stop-color="#E1622C" stop-opacity="0.84"/>
<stop offset="0.773958" stop-color="#E4A52D"/>
</linearGradient>
<linearGradient id="paint1_linear_22_18" x1="12.5347" y1="16.6667" x2="12.5347" y2="18.3334" gradientUnits="userSpaceOnUse">
<stop stop-color="#E1622C" stop-opacity="0.84"/>
<stop offset="0.773958" stop-color="#E4A52D"/>
</linearGradient>
<linearGradient id="paint2_linear_22_18" x1="20.0555" y1="11.6667" x2="20.0555" y2="13.3334" gradientUnits="userSpaceOnUse">
<stop stop-color="#E1622C" stop-opacity="0.84"/>
<stop offset="0.773958" stop-color="#E4A52D"/>
</linearGradient>
<linearGradient id="paint3_linear_22_18" x1="27.5764" y1="16.6667" x2="27.5764" y2="18.3334" gradientUnits="userSpaceOnUse">
<stop stop-color="#E1622C" stop-opacity="0.84"/>
<stop offset="0.773958" stop-color="#E4A52D"/>
</linearGradient>
</defs>
</svg>
