<svg xmlns="http://www.w3.org/2000/svg" width="19" height="19" viewBox="0 0 19 19" fill="none">
<path d="M8.83426 1.66697C9.04381 1.02205 9.95619 1.02205 10.1657 1.66697L11.5615 5.96262C11.7891 6.66305 12.4418 7.13729 13.1783 7.13729H17.695C18.3731 7.13729 18.655 8.00502 18.1064 8.4036L14.4523 11.0585C13.8565 11.4914 13.6072 12.2587 13.8348 12.9591L15.2305 17.2548C15.4401 17.8997 14.7019 18.436 14.1533 18.0374L10.4992 15.3825C9.90341 14.9496 9.09659 14.9496 8.50076 15.3825L4.84667 18.0374C4.29807 18.436 3.55993 17.8997 3.76948 17.2548L5.16522 12.9591C5.39281 12.2587 5.14349 11.4914 4.54766 11.0585L0.893562 8.4036C0.344965 8.00502 0.626905 7.13729 1.30501 7.13729H5.82172C6.55821 7.13729 7.21093 6.66305 7.43852 5.96262L8.83426 1.66697Z" stroke="#FF6600"/>
</svg>